<svg xmlns="http://www.w3.org/2000/svg" xmlns:svg="http://www.w3.org/2000/svg" id="svg4624" width="800" height="600" version="1.1"><defs id="defs4626"><marker id="StopM" orient="auto" refX="0" refY="0" style="overflow:visible"><path id="path6098" d="M 0.0,5.65 L 0.0,-5.65" transform="scale(0.4)" style="fill:none;fill-opacity:.75;fill-rule:evenodd;stroke:#000;stroke-width:1pt"/></marker><marker id="DotS" orient="auto" refX="0" refY="0" style="overflow:visible"><path id="path5993" d="M -2.5,-1.0 C -2.5,1.7600000 -4.7400000,4.0 -7.5,4.0 C -10.260000,4.0 -12.5,1.7600000 -12.5,-1.0 C -12.5,-3.7600000 -10.260000,-6.0 -7.5,-6.0 C -4.7400000,-6.0 -2.5,-3.7600000 -2.5,-1.0 z" transform="scale(0.2) translate(7.4, 1)" style="fill-rule:evenodd;stroke:#000;stroke-width:1pt;marker-start:none;marker-end:none"/></marker><marker id="DotL" orient="auto" refX="0" refY="0" style="overflow:visible"><path id="path5987" d="M -2.5,-1.0 C -2.5,1.7600000 -4.7400000,4.0 -7.5,4.0 C -10.260000,4.0 -12.5,1.7600000 -12.5,-1.0 C -12.5,-3.7600000 -10.260000,-6.0 -7.5,-6.0 C -4.7400000,-6.0 -2.5,-3.7600000 -2.5,-1.0 z" transform="scale(0.8) translate(7.4, 1)" style="fill-rule:evenodd;stroke:#000;stroke-width:1pt;marker-start:none;marker-end:none"/></marker><marker id="Arrow2Lstart" orient="auto" refX="0" refY="0" style="overflow:visible"><path id="path5943" d="M 8.7185878,4.0337352 L -2.2072895,0.016013256 L 8.7185884,-4.0017078 C 6.9730900,-1.6296469 6.9831476,1.6157441 8.7185878,4.0337352 z" transform="scale(1.1) translate(1,0)" style="font-size:12;fill-rule:evenodd;stroke-width:.625;stroke-linejoin:round"/></marker></defs><metadata id="metadata4629"/><g id="layer1"><rect style="fill:gray;fill-rule:evenodd;stroke:#fff;stroke-width:.87221748px;stroke-linecap:butt;stroke-linejoin:miter;stroke-opacity:1" id="rect5408" width="500.128" height="262.396" x="4.936" y="4.936" ry="10.775"/><flowRoot id="flowRoot8172" xml:space="preserve" style="font-size:36px;font-style:normal;font-variant:normal;font-weight:700;font-stretch:normal;text-align:start;line-height:100%;writing-mode:lr-tb;text-anchor:start;fill:#000;fill-opacity:1;stroke:none;font-family:Sans;-inkscape-font-specification:Sans Bold"><flowRegion id="flowRegion8174"><rect id="rect8176" width="41.902" height="54.149" x="103.945" y="50.578" style="font-size:36px;font-style:normal;font-variant:normal;font-weight:700;font-stretch:normal;text-align:start;line-height:100%;writing-mode:lr-tb;text-anchor:start;font-family:Sans;-inkscape-font-specification:Sans Bold"/></flowRegion><flowPara id="flowPara8180">0.20.</flowPara></flowRoot><g id="g2899"><path style="fill:none;stroke:#d40000;stroke-width:3.75110221;stroke-linecap:butt;stroke-linejoin:miter;stroke-miterlimit:4;stroke-opacity:1;stroke-dasharray:none" id="path8109" d="m 114.32613,193.09673 c 0,0 137.26963,-81.90085 137.26963,-81.90085"/><path style="fill:none;stroke:#d40000;stroke-width:3;stroke-linecap:butt;stroke-linejoin:miter;stroke-miterlimit:4;stroke-opacity:1;stroke-dasharray:none" id="path8111" d="m 252.12133,110.67031 c 0,0 67.50359,0.8371 67.50359,41.25377 0,40.41667 65,41.25001 65,41.25001"/></g><g id="g2880"><g id="g8160" transform="translate(2.1213203,21.92031)"><path style="fill:none;stroke:navy;stroke-width:5;stroke-linecap:butt;stroke-linejoin:miter;stroke-miterlimit:4;stroke-opacity:1;stroke-dasharray:none;marker-start:none" id="path7312" d="M 35.001966,80 469.1647,80"/><path style="fill:#f2f2f2;fill-opacity:1;stroke:navy;stroke-width:5;stroke-linecap:round;stroke-miterlimit:4;stroke-opacity:1;stroke-dasharray:none" id="path8072" d="m 137.5,80 c 0,4.602373 -3.73096,8.333333 -8.33333,8.333333 -4.60237,0 -8.33333,-3.73096 -8.33333,-8.333333 0,-4.602373 3.73096,-8.333333 8.33333,-8.333333 4.60237,0 8.33333,3.73096 8.33333,8.333333 z" transform="translate(-15,0.41666667)"/><path style="fill:#f2f2f2;fill-opacity:1;stroke:navy;stroke-width:5;stroke-linecap:round;stroke-miterlimit:4;stroke-opacity:1;stroke-dasharray:none" id="path8072-1" d="m 137.5,80 c 0,4.602373 -3.73096,8.333333 -8.33333,8.333333 -4.60237,0 -8.33333,-3.73096 -8.33333,-8.333333 0,-4.602373 3.73096,-8.333333 8.33333,-8.333333 4.60237,0 8.33333,3.73096 8.33333,8.333333 z" transform="translate(120.83334,0.41666632)"/><path style="fill:#f2f2f2;fill-opacity:1;stroke:navy;stroke-width:5;stroke-linecap:round;stroke-miterlimit:4;stroke-opacity:1;stroke-dasharray:none" id="path8072-2" d="m 137.5,80 c 0,4.602373 -3.73096,8.333333 -8.33333,8.333333 -4.60237,0 -8.33333,-3.73096 -8.33333,-8.333333 0,-4.602373 3.73096,-8.333333 8.33333,-8.333333 4.60237,0 8.33333,3.73096 8.33333,8.333333 z" transform="translate(253.33333,-3.4057873e-6)"/></g><flowRoot style="font-size:24px;font-style:normal;font-variant:normal;font-weight:400;font-stretch:normal;text-align:start;line-height:125%;writing-mode:lr-tb;text-anchor:start;fill:#f2f2f2;fill-opacity:1;stroke:none;font-family:Sans;-inkscape-font-specification:Sans" id="flowRoot8182" transform="translate(14.142135,33.234018)" xml:space="preserve"><flowRegion id="flowRegion8184"><rect style="font-size:24px;font-style:normal;font-variant:normal;font-weight:400;font-stretch:normal;text-align:start;line-height:125%;writing-mode:lr-tb;text-anchor:start;fill:#f2f2f2;font-family:Sans;-inkscape-font-specification:Sans" id="rect8186" width="59.397" height="36.77" x="83.439" y="27.951"/></flowRegion><flowPara id="flowPara8188">0.2</flowPara></flowRoot><flowRoot style="font-size:24px;font-style:normal;font-variant:normal;font-weight:400;font-stretch:normal;text-align:start;line-height:125%;writing-mode:lr-tb;text-anchor:start;fill:#f2f2f2;fill-opacity:1;stroke:none;font-family:Sans;-inkscape-font-specification:Sans" id="flowRoot8182-2" transform="translate(150.31407,32.203619)" xml:space="preserve"><flowRegion id="flowRegion8184-7"><rect style="font-size:24px;font-style:normal;font-variant:normal;font-weight:400;font-stretch:normal;text-align:start;line-height:125%;writing-mode:lr-tb;text-anchor:start;fill:#f2f2f2;font-family:Sans;-inkscape-font-specification:Sans" id="rect8186-3" width="59.397" height="36.77" x="83.439" y="27.951"/></flowRegion><flowPara id="flowPara8236">0.5</flowPara></flowRoot><flowRoot style="font-size:24px;font-style:normal;font-variant:normal;font-weight:400;font-stretch:normal;text-align:start;line-height:125%;writing-mode:lr-tb;text-anchor:start;fill:#f2f2f2;fill-opacity:1;stroke:none;font-family:Sans;-inkscape-font-specification:Sans" id="flowRoot8182-0" transform="translate(282.54304,31.496512)" xml:space="preserve"><flowRegion id="flowRegion8184-4"><rect style="font-size:24px;font-style:normal;font-variant:normal;font-weight:400;font-stretch:normal;text-align:start;line-height:125%;writing-mode:lr-tb;text-anchor:start;fill:#f2f2f2;font-family:Sans;-inkscape-font-specification:Sans" id="rect8186-4" width="59.397" height="36.77" x="83.439" y="27.951"/></flowRegion><flowPara id="flowPara8238">0.8</flowPara></flowRoot></g></g></svg>